<?xml version="1.0" encoding="UTF-8" standalone="no"?>
<!DOCTYPE svg PUBLIC "-//W3C//DTD SVG 1.1//EN"
 "http://www.w3.org/Graphics/SVG/1.1/DTD/svg11.dtd">
<!-- Generated by graphviz version 15.0.0 (20260523.1842)
 -->
<!-- Title: ChangeGate Pages: 1 -->
<svg width="1396pt" height="113pt"
 viewBox="0.00 0.00 1396.00 113.00" xmlns="http://www.w3.org/2000/svg" xmlns:xlink="http://www.w3.org/1999/xlink">
<g id="graph0" class="graph" transform="scale(1 1) rotate(0) translate(25.2 87.95)">
<title>ChangeGate</title>
<polygon fill="#ffffff" stroke="none" points="-25.2,25.2 -25.2,-87.95 1370.88,-87.95 1370.88,25.2 -25.2,25.2"/>
<text xml:space="preserve" text-anchor="middle" x="672.84" y="-41.65" font-family="Inter" font-size="18.00">ChangeGate Graph Path</text>
<!-- n1 -->
<g id="node1" class="node">
<title>n1</title>
<g id="a_node1"><a xlink:title="aws_db_instance.customer&#10;aws_db_instance.customer&#10;type: aws_db_instance&#10;kind: data_store&#10;environment: production&#10;actions: update">
<path fill="#fef2f2" stroke="#dc2626" d="M1333.68,-36C1333.68,-36 1209.9,-36 1209.9,-36 1203.9,-36 1197.9,-30 1197.9,-24 1197.9,-24 1197.9,-12 1197.9,-12 1197.9,-6 1203.9,0 1209.9,0 1209.9,0 1333.68,0 1333.68,0 1339.68,0 1345.68,-6 1345.68,-12 1345.68,-12 1345.68,-24 1345.68,-24 1345.68,-30 1339.68,-36 1333.68,-36"/>
<text xml:space="preserve" text-anchor="middle" x="1271.79" y="-19.55" font-family="Inter" font-size="11.00" fill="#7f1d1d">aws_db_instance.customer</text>
<text xml:space="preserve" text-anchor="middle" x="1271.79" y="-7.55" font-family="Inter" font-size="11.00" fill="#7f1d1d">data_store</text>
</a>
</g>
</g>
<!-- n2 -->
<g id="node2" class="node">
<title>n2</title>
<g id="a_node2"><a xlink:title="aws_ecs_service.admin&#10;aws_ecs_service.admin&#10;type: aws_ecs_service&#10;kind: workload&#10;environment: production&#10;actions: update">
<path fill="#ecfeff" stroke="#0891b2" d="M795.12,-36C795.12,-36 687.84,-36 687.84,-36 681.84,-36 675.84,-30 675.84,-24 675.84,-24 675.84,-12 675.84,-12 675.84,-6 681.84,0 687.84,0 687.84,0 795.12,0 795.12,0 801.12,0 807.12,-6 807.12,-12 807.12,-12 807.12,-24 807.12,-24 807.12,-30 801.12,-36 795.12,-36"/>
<text xml:space="preserve" text-anchor="middle" x="741.48" y="-19.55" font-family="Inter" font-size="11.00" fill="#164e63">aws_ecs_service.admin</text>
<text xml:space="preserve" text-anchor="middle" x="741.48" y="-7.55" font-family="Inter" font-size="11.00" fill="#164e63">workload</text>
</a>
</g>
</g>
<!-- n6 -->
<g id="node6" class="node">
<title>n6</title>
<g id="a_node6"><a xlink:title="aws_security_group.public&#10;aws_security_group.public&#10;type: aws_security_group&#10;kind: network_boundary&#10;environment: production">
<path fill="#f0fdf4" stroke="#16a34a" d="M1061.4,-36C1061.4,-36 941.37,-36 941.37,-36 935.37,-36 929.37,-30 929.37,-24 929.37,-24 929.37,-12 929.37,-12 929.37,-6 935.37,0 941.37,0 941.37,0 1061.4,0 1061.4,0 1067.4,0 1073.4,-6 1073.4,-12 1073.4,-12 1073.4,-24 1073.4,-24 1073.4,-30 1067.4,-36 1061.4,-36"/>
<text xml:space="preserve" text-anchor="middle" x="1001.39" y="-19.55" font-family="Inter" font-size="11.00" fill="#14532d">aws_security_group.public</text>
<text xml:space="preserve" text-anchor="middle" x="1001.39" y="-7.55" font-family="Inter" font-size="11.00" fill="#14532d">network_boundary</text>
</a>
</g>
</g>
<!-- n2&#45;&gt;n6 -->
<g id="edge1" class="edge">
<title>n2&#45;&gt;n6</title>
<path fill="none" stroke="#4f46e5" stroke-width="2.4" d="M807.4,-18C807.4,-18 917.5,-18 917.5,-18"/>
<polygon fill="#4f46e5" stroke="#4f46e5" stroke-width="2.4" points="917.5,-20.8 925.5,-18 917.5,-15.2 917.5,-20.8"/>
<text xml:space="preserve" text-anchor="middle" x="868.25" y="-19.2" font-family="Inter" font-size="9.00" fill="#312e81">allows egress</text>
</g>
<!-- n3 -->
<g id="node3" class="node">
<title>n3</title>
<g id="a_node3"><a xlink:title="aws_lb.admin&#10;aws_lb.admin&#10;type: aws_lb&#10;kind: public_entrypoint&#10;environment: production&#10;actions: update">
<path fill="#eff6ff" stroke="#2563eb" d="M86.28,-36C86.28,-36 12,-36 12,-36 6,-36 0,-30 0,-24 0,-24 0,-12 0,-12 0,-6 6,0 12,0 12,0 86.28,0 86.28,0 92.28,0 98.28,-6 98.28,-12 98.28,-12 98.28,-24 98.28,-24 98.28,-30 92.28,-36 86.28,-36"/>
<text xml:space="preserve" text-anchor="middle" x="49.14" y="-19.55" font-family="Inter" font-size="11.00" fill="#1e3a8a">aws_lb.admin</text>
<text xml:space="preserve" text-anchor="middle" x="49.14" y="-7.55" font-family="Inter" font-size="11.00" fill="#1e3a8a">public_entrypoint</text>
</a>
</g>
</g>
<!-- n4 -->
<g id="node4" class="node">
<title>n4</title>
<g id="a_node4"><a xlink:title="aws_lb_listener.admin&#10;aws_lb_listener.admin&#10;type: aws_lb_listener&#10;kind: unknown&#10;environment: production">
<path fill="#eef2ff" stroke="#4f46e5" d="M310.56,-36C310.56,-36 211.53,-36 211.53,-36 205.53,-36 199.53,-30 199.53,-24 199.53,-24 199.53,-12 199.53,-12 199.53,-6 205.53,0 211.53,0 211.53,0 310.56,0 310.56,0 316.56,0 322.56,-6 322.56,-12 322.56,-12 322.56,-24 322.56,-24 322.56,-30 316.56,-36 310.56,-36"/>
<text xml:space="preserve" text-anchor="middle" x="261.05" y="-19.55" font-family="Inter" font-size="11.00" fill="#312e81">aws_lb_listener.admin</text>
<text xml:space="preserve" text-anchor="middle" x="261.05" y="-7.55" font-family="Inter" font-size="11.00" fill="#312e81">unknown</text>
</a>
</g>
</g>
<!-- n3&#45;&gt;n4 -->
<g id="edge2" class="edge">
<title>n3&#45;&gt;n4</title>
<path fill="none" stroke="#4f46e5" stroke-width="2.4" d="M98.55,-18C98.55,-18 187.77,-18 187.77,-18"/>
<polygon fill="#4f46e5" stroke="#4f46e5" stroke-width="2.4" points="187.77,-20.8 195.77,-18 187.77,-15.2 187.77,-20.8"/>
<text xml:space="preserve" text-anchor="middle" x="148.91" y="-19.2" font-family="Inter" font-size="9.00" fill="#312e81">routes to</text>
</g>
<!-- n5 -->
<g id="node5" class="node">
<title>n5</title>
<g id="a_node5"><a xlink:title="aws_lb_target_group.admin&#10;aws_lb_target_group.admin&#10;type: aws_lb_target_group&#10;kind: unknown&#10;environment: production">
<path fill="#eef2ff" stroke="#4f46e5" d="M562.59,-36C562.59,-36 435.81,-36 435.81,-36 429.81,-36 423.81,-30 423.81,-24 423.81,-24 423.81,-12 423.81,-12 423.81,-6 429.81,0 435.81,0 435.81,0 562.59,0 562.59,0 568.59,0 574.59,-6 574.59,-12 574.59,-12 574.59,-24 574.59,-24 574.59,-30 568.59,-36 562.59,-36"/>
<text xml:space="preserve" text-anchor="middle" x="499.2" y="-19.55" font-family="Inter" font-size="11.00" fill="#312e81">aws_lb_target_group.admin</text>
<text xml:space="preserve" text-anchor="middle" x="499.2" y="-7.55" font-family="Inter" font-size="11.00" fill="#312e81">unknown</text>
</a>
</g>
</g>
<!-- n4&#45;&gt;n5 -->
<g id="edge3" class="edge">
<title>n4&#45;&gt;n5</title>
<path fill="none" stroke="#4f46e5" stroke-width="2.4" d="M323,-18C323,-18 411.9,-18 411.9,-18"/>
<polygon fill="#4f46e5" stroke="#4f46e5" stroke-width="2.4" points="411.9,-20.8 419.9,-18 411.9,-15.2 411.9,-20.8"/>
<text xml:space="preserve" text-anchor="middle" x="373.19" y="-19.2" font-family="Inter" font-size="9.00" fill="#312e81">routes to</text>
</g>
<!-- n5&#45;&gt;n2 -->
<g id="edge4" class="edge">
<title>n5&#45;&gt;n2</title>
<path fill="none" stroke="#4f46e5" stroke-width="2.4" d="M574.86,-18C574.86,-18 663.76,-18 663.76,-18"/>
<polygon fill="#4f46e5" stroke="#4f46e5" stroke-width="2.4" points="663.76,-20.8 671.76,-18 663.76,-15.2 663.76,-20.8"/>
<text xml:space="preserve" text-anchor="middle" x="625.22" y="-19.2" font-family="Inter" font-size="9.00" fill="#312e81">routes to</text>
</g>
<!-- n6&#45;&gt;n1 -->
<g id="edge5" class="edge">
<title>n6&#45;&gt;n1</title>
<path fill="none" stroke="#4f46e5" stroke-width="2.4" d="M1073.85,-18C1073.85,-18 1186.08,-18 1186.08,-18"/>
<polygon fill="#4f46e5" stroke="#4f46e5" stroke-width="2.4" points="1186.08,-20.8 1194.08,-18 1186.08,-15.2 1186.08,-20.8"/>
<text xml:space="preserve" text-anchor="middle" x="1135.65" y="-19.2" font-family="Inter" font-size="9.00" fill="#312e81">allows ingress</text>
</g>
</g>
</svg>
